<svg width="750" height="750" viewBox="0 0 750 750" fill="none" xmlns="http://www.w3.org/2000/svg">
<path d="M282.558 644.876C293.605 644.876 301.454 642.521 306.105 637.809C311.337 632.509 313.953 624.264 313.953 613.074V302.12L365.407 398.41C370.64 408.422 376.744 415.783 383.721 420.495C391.279 424.617 400.581 426.678 411.628 426.678H446.512C457.558 426.678 466.57 424.617 473.547 420.495C481.105 415.783 487.5 408.422 492.733 398.41L544.186 302.12V613.074C544.186 624.264 546.512 632.509 551.163 637.809C556.395 642.521 564.535 644.876 575.581 644.876H709.884C720.93 644.876 728.779 642.521 733.43 637.809C738.663 632.509 741.279 624.264 741.279 613.074V40.636C741.279 29.4464 738.663 21.4959 733.43 16.7844C728.779 11.4841 720.93 8.83391 709.884 8.83391H568.605C559.302 8.83391 551.453 10.8952 545.058 15.0176C539.244 19.1401 533.721 25.9128 528.488 35.3357L450.872 179.329C447.965 184.629 445.349 188.457 443.023 190.813C441.279 193.168 438.663 194.346 435.174 194.346H427.326C423.837 194.346 420.93 193.168 418.605 190.813C416.86 188.457 414.535 184.629 411.628 179.329L333.14 35.3357C327.907 25.9128 322.093 19.1401 315.698 15.0176C309.884 10.8952 302.326 8.83391 293.023 8.83391H152.616C141.57 8.83391 133.43 11.4841 128.198 16.7844C123.547 21.4959 121.221 29.4464 121.221 40.636V613.074C121.221 624.264 123.547 632.509 128.198 637.809C133.43 642.521 141.57 644.876 152.616 644.876H282.558ZM310.465 645.76L197.093 741.166C194.767 743.522 190.988 745.583 185.756 747.35C181.105 749.117 175.872 750 170.058 750H40.1163C26.1628 750 15.9884 746.761 9.59302 740.283C3.19767 733.804 0 723.498 0 709.364V136.926C0 129.27 0.872092 122.792 2.61628 117.491C4.94186 112.191 8.13954 107.774 12.2093 104.24L124.709 7.95053C127.616 5.59482 131.395 3.82802 136.047 2.65014C141.279 0.883381 146.802 0 152.616 0H293.023C304.07 0 313.081 2.3557 320.058 7.0671C327.616 11.7785 334.593 19.7291 340.988 30.9187L400.291 141.343L408.14 127.208C410.465 123.086 412.791 119.258 415.116 115.724C418.023 111.602 420.93 108.363 423.837 106.007L536.337 10.6007C540.988 7.06712 545.64 4.41694 550.291 2.65014C555.523 0.883381 561.628 0 568.605 0H709.884C723.837 0 734.012 3.2391 740.407 9.71729C746.802 16.1955 750 26.5018 750 40.636V613.074C750 620.73 748.837 627.208 746.512 632.509C744.767 637.809 741.86 642.226 737.791 645.76L624.419 741.166C622.093 743.522 618.314 745.583 613.081 747.35C608.43 749.117 603.198 750 597.384 750H463.081C448.547 750 438.081 746.761 431.686 740.283C425.872 733.804 422.965 723.498 422.965 709.364V476.148L371.512 519.435C366.86 523.557 361.337 526.796 354.942 529.152C349.128 530.919 342.151 531.802 334.012 531.802H322.674V613.074C322.674 620.73 321.512 627.208 319.186 632.509C317.442 637.809 314.535 642.226 310.465 645.76Z" fill="white"/>
</svg>
